<?xml version="1.0" standalone="no"?><!-- Generator: Adobe Fireworks CS5, Export SVG Extension by Aaron Beall (http://fireworks.abeall.com) . Version: 0.6.1  --><!DOCTYPE svg PUBLIC "-//W3C//DTD SVG 1.1//EN" "http://www.w3.org/Graphics/SVG/1.1/DTD/svg11.dtd"><svg id="icon-Page%201" viewBox="0 0 16 16" style="background-color:#ffffff00" version="1.1"	xmlns="http://www.w3.org/2000/svg" xmlns:xlink="http://www.w3.org/1999/xlink" xml:space="preserve"	x="0px" y="0px" width="16px" height="16px">	<g id="Layer%201">		<path d="M 3.8281 5.0156 C 3.8281 4.4633 4.2758 4.0156 4.8281 4.0156 C 5.3804 4.0156 5.8281 4.4633 5.8281 5.0156 C 5.8281 5.5679 5.3804 6.0156 4.8281 6.0156 C 4.2758 6.0156 3.8281 5.5679 3.8281 5.0156 ZM 10.0781 11.0938 C 10.0781 10.5415 10.5258 10.0938 11.0781 10.0938 C 11.6304 10.0938 12.0781 10.5415 12.0781 11.0938 C 12.0781 11.646 11.6304 12.0938 11.0781 12.0938 C 10.5258 12.0938 10.0781 11.646 10.0781 11.0938 ZM 3.7089 7.0698 C 4.4036 7.4644 5.2572 7.4805 5.9649 7.1182 L 9.0478 9.9907 C 8.5313 10.8865 8.6585 12.0482 9.4292 12.8131 C 9.8929 13.2734 10.5014 13.5023 11.1091 13.5 C 11.7169 13.5023 12.3254 13.2734 12.7891 12.8131 C 13.5597 12.0482 13.6869 10.8865 13.1705 9.9907 L 15.8169 7.2791 C 16.0597 7.0381 16.0597 6.6473 15.8169 6.4063 C 15.574 6.1652 15.1803 6.1652 14.9375 6.4063 L 12.2911 9.1178 C 11.9262 8.9106 11.4709 8.6859 11.0625 8.6875 C 10.6541 8.6859 10.2921 8.9106 9.9272 9.1178 L 6.882 6.2827 C 7.4579 5.3765 7.3481 4.164 6.5526 3.3745 C 5.6298 2.4585 4.1337 2.4585 3.2109 3.3745 C 2.4403 4.1394 2.3131 5.3011 2.8295 6.1969 L 0.1821 8.8319 C -0.0607 9.073 -0.0607 9.4638 0.1821 9.7048 C 0.425 9.9458 0.8187 9.9458 1.0615 9.7048 L 3.7089 7.0698 Z" fill="#ffffff"/>	</g></svg>